# xmcd
#
# Track frame offsets:
#   150
#   17198
#   43036
#   61231
#   83324
#   98884
#   117311
#   139772
#   152639
#
# Disc length: 2295 seconds
#
# Revision: 0
# Processed by: cddbd v1.5.1PL2 Copyright (c) Steve Scherf et al.
# Submitted via: GXTranscoder 2.0.1939
#
DISCID=6908f509
DTITLE=Sinclair - Comme je suis
DYEAR=2004
DGENRE=Blues
TTITLE0=comme je suis
TTITLE1=family disaster
TTITLE2=laisse moi faire
TTITLE3=monnaie
TTITLE4=heureux quand meme
TTITLE5=twilight avenue
TTITLE6=mon pote
TTITLE7=je t'oublierai
TTITLE8=le futur
EXTD=
EXTT0=
EXTT1=
EXTT2=
EXTT3=
EXTT4=
EXTT5=
EXTT6=
EXTT7=
EXTT8=
PLAYORDER=
